<?xml version="1.0" encoding="UTF-8"?>
<svg id="Logo" xmlns="http://www.w3.org/2000/svg" viewBox="0 0 1135.45 197.76">
  <defs>
    <style>
      .cls-1 {
        fill: #fff;
      }
    </style>
  </defs>
  <g>
    <path class="cls-1" d="M156.63,38.62l6.43-7.51h-25.74l6.43,7.51v97.58l-6.43,7.51h25.74l-6.43-7.51V38.62Z"/>
    <path class="cls-1" d="M326.77,86.72v3.06h26.96v30.79c-2.66,6.84-7.02,12.18-13.1,16.01-6.08,3.83-12.79,5.75-20.14,5.75-8.58,0-16.14-2.35-22.68-7.05-6.53-4.7-11.59-11.26-15.16-19.69-3.57-8.42-5.36-18.1-5.36-29.03s1.84-20.04,5.52-28.27c3.68-8.22,8.84-14.63,15.47-19.22,6.64-4.6,14.25-6.89,22.83-6.89s16.49,2.63,22.82,7.89c6.33,5.26,12.05,13.3,17.16,24.12l-4.14-25.58v-2.45c-4.49-2.25-9.88-4.01-16.16-5.29-6.28-1.28-12.74-1.86-19.38-1.76-10.52,0-20.25,2.58-29.19,7.74-8.93,5.16-16.03,12.13-21.29,20.91-5.26,8.78-7.89,18.38-7.89,28.8s2.61,20.45,7.81,29.49c5.21,9.04,12.21,16.21,20.99,21.52,8.78,5.31,18.28,7.97,28.5,7.97,6.64,0,13.25-1.12,19.84-3.37,6.59-2.25,12.33-5.36,17.23-9.34l8.74,13.63v-51.63l6.42-8.12h-45.8Z"/>
    <path class="cls-1" d="M482.91,57.84c-5.05-8.84-11.84-15.83-20.37-20.99-8.53-5.16-17.69-7.74-27.5-7.74s-18.97,2.58-27.5,7.74c-8.53,5.16-15.32,12.15-20.37,20.99-5.06,8.84-7.58,18.41-7.58,28.72s2.55,20.45,7.66,29.49c5.1,9.04,11.92,16.22,20.45,21.53,8.53,5.31,17.64,7.97,27.35,7.97s18.82-2.66,27.34-7.97c8.53-5.31,15.35-12.49,20.45-21.53,5.11-9.04,7.66-18.86,7.66-29.49s-2.52-19.89-7.58-28.72ZM477.16,105.37c-1.18,9.04-4.18,16.61-8.98,22.71-4.82,6.1-11.17,10.2-19.06,12.32-7.9,2.12-15.45,1.73-22.67-1.14-7.23-2.88-13.6-7.93-19.14-15.18-5.53-7.23-9.74-16.18-12.59-26.84-2.75-10.26-3.51-19.83-2.31-28.72,1.22-8.89,4.25-16.33,9.09-22.34,4.84-6,11.2-10.06,19.1-12.17,7.89-2.11,15.43-1.79,22.62.99,7.19,2.78,13.54,7.72,19.04,14.81,5.5,7.09,9.61,15.76,12.36,26.02,2.86,10.66,3.7,20.5,2.53,29.54Z"/>
    <g>
      <path class="cls-1" d="M202.58,140.64v-54.54h38.61v-3.06l-34.78.13h-16.69v52.4l-6.43,8.12h68.15l4.6-12.87-53.44,9.81Z"/>
      <polygon class="cls-1" points="253.96 43.98 202.59 34.18 202.59 70.01 189.71 77.99 189.71 39.23 183.28 31.11 249.51 31.11 253.96 43.98"/>
    </g>
    <path class="cls-1" d="M127.92,86.57c0,10.42-2.76,19.99-8.27,28.72-5.52,8.73-13.07,15.65-22.67,20.76-9.6,5.11-20.22,7.66-31.86,7.66h-31.13l2.43-3.06h27.78c9.5,0,18-2.3,25.5-6.9,7.51-4.59,13.35-11,17.54-19.23,4.18-8.22,6.28-17.54,6.28-27.95s-2.09-19.15-6.28-27.11c-4.19-7.97-10.01-14.17-17.47-18.61-7.45-4.45-15.93-6.66-25.43-6.66h-17.31v93.43l-12.87,7.97V39.23l-6.43-8.12h37.38c11.64,0,22.26,2.47,31.86,7.43,9.61,4.95,17.16,11.67,22.67,20.15,5.52,8.48,8.27,17.77,8.27,27.88Z"/>
    <path class="cls-1" d="M830.95,31.11l6.44,8.12v68.32c0,5.62-1.38,10.67-4.14,15.16-2.76,4.49-6.53,8.04-11.33,10.65-4.8,2.6-10.21,3.9-16.24,3.9-6.33,0-12.07-1.33-17.23-3.98-5.16-2.65-9.19-6.28-12.1-10.88-2.91-4.6-4.37-9.75-4.37-15.47l-.31-67.71,6.54-8.12h-25.68l6.42,8.12v70.92c0,6.74,1.87,12.79,5.59,18.15,3.73,5.36,8.84,9.57,15.32,12.64,6.49,3.06,13.76,4.6,21.83,4.6,7.46,0,14.22-1.61,20.3-4.83,6.08-3.22,10.82-7.63,14.25-13.25,3.42-5.62,5.13-11.95,5.13-19V39.23l6.49-8.12h-16.92Z"/>
    <path class="cls-1" d="M977.39,31.18l6.49,8.12-.06,81.13h-1.84l-76.29-91h-16.93l28.04,33.53,70.84,84.73V39.23l6.42-8.11-16.68.06ZM903.09,135.58V54.4l-3.83-4.57v85.75l-6.28,8.12h16.54l-6.43-8.12Z"/>
    <path class="cls-1" d="M870.22,38.62l6.43-7.51h-25.73l6.43,7.51v97.58l-6.43,7.51h25.73l-6.43-7.51V38.62Z"/>
    <path class="cls-1" d="M1100.14,57.84c-5.05-8.84-11.84-15.83-20.37-20.99-8.53-5.16-17.7-7.74-27.5-7.74s-18.97,2.58-27.5,7.74c-8.53,5.16-15.32,12.15-20.37,20.99-5.06,8.84-7.58,18.41-7.58,28.72s2.55,20.45,7.66,29.49c5.1,9.04,11.92,16.22,20.45,21.53,8.53,5.31,17.64,7.97,27.35,7.97s18.82-2.66,27.34-7.97c8.53-5.31,15.35-12.49,20.45-21.53,5.11-9.04,7.66-18.86,7.66-29.49s-2.53-19.89-7.58-28.72ZM1094.38,105.37c-1.18,9.04-4.17,16.61-8.98,22.71-4.81,6.1-11.17,10.2-19.05,12.32-7.9,2.12-15.45,1.73-22.67-1.14-7.22-2.88-13.6-7.93-19.14-15.18-5.53-7.23-9.73-16.18-12.58-26.84-2.75-10.26-3.52-19.83-2.3-28.72,1.22-8.89,4.24-16.33,9.08-22.34,4.84-6,11.2-10.06,19.1-12.17,7.89-2.11,15.43-1.79,22.63.99,7.19,2.78,13.53,7.72,19.03,14.81,5.5,7.09,9.62,15.76,12.37,26.02,2.85,10.66,3.7,20.5,2.52,29.54Z"/>
    <g>
      <polygon class="cls-1" points="667.31 154.2 665.77 157.28 749.43 168.65 756.72 155.82 667.31 154.2"/>
      <path class="cls-1" d="M740.6,57.84c-5.05-8.84-11.84-15.82-20.37-20.99-8.53-5.16-17.69-7.74-27.5-7.74s-18.97,2.58-27.5,7.74c-8.53,5.16-15.32,12.15-20.37,20.99-5.06,8.84-7.58,18.41-7.58,28.73s2.55,20.45,7.66,29.49c5.1,9.04,11.92,16.22,20.45,21.52,8.53,5.31,17.64,7.97,27.35,7.97s18.82-2.66,27.34-7.97c8.53-5.31,15.35-12.48,20.45-21.52,5.11-9.04,7.66-18.86,7.66-29.49s-2.53-19.89-7.58-28.73ZM735.12,105.36c-1.18,9.04-4.17,16.61-8.98,22.71-4.81,6.1-11.17,10.21-19.06,12.32-7.9,2.11-15.45,1.74-22.67-1.14-7.23-2.87-13.6-7.93-19.14-15.17-5.53-7.23-9.73-16.18-12.58-26.84-2.75-10.26-3.52-19.83-2.31-28.72,1.22-8.89,4.24-16.33,9.08-22.34,4.84-6,11.2-10.07,19.1-12.18,7.88-2.11,15.43-1.78,22.63,1,7.19,2.78,13.53,7.71,19.03,14.8,5.5,7.09,9.61,15.76,12.36,26.03,2.86,10.65,3.7,20.5,2.53,29.53Z"/>
    </g>
    <polygon class="cls-1" points="609.26 143.7 615.7 136.8 601.64 103.41 553.08 103.41 539.58 136.66 546.05 143.7 529.16 143.7 535.58 136.5 572.63 47.52 574.24 51.37 554.33 100.35 600.36 100.35 578.64 48.78 570.51 29.47 570.48 29.43 584.76 29.43 630.11 136.66 636.53 143.7 609.26 143.7"/>
  </g>
  <path class="cls-1" d="M482.91,57.84c-5.05-8.84-11.84-15.83-20.37-20.99-8.53-5.16-17.69-7.74-27.5-7.74s-18.97,2.58-27.5,7.74c-8.53,5.16-15.32,12.15-20.37,20.99-5.06,8.84-7.58,18.41-7.58,28.72s2.55,20.45,7.66,29.49c5.1,9.04,11.92,16.22,20.45,21.53,8.53,5.31,17.64,7.97,27.35,7.97s18.82-2.66,27.34-7.97c8.53-5.31,15.35-12.49,20.45-21.53,5.11-9.04,7.66-18.86,7.66-29.49s-2.52-19.89-7.58-28.72ZM477.16,105.37c-1.18,9.04-4.18,16.61-8.98,22.71-4.82,6.1-11.17,10.2-19.06,12.32-7.9,2.12-15.45,1.73-22.67-1.14-7.23-2.88-13.6-7.93-19.14-15.18-5.53-7.23-9.74-16.18-12.59-26.84-2.75-10.26-3.51-19.83-2.31-28.72,1.22-8.89,4.25-16.33,9.09-22.34,4.84-6,11.2-10.06,19.1-12.17,7.89-2.11,15.43-1.79,22.62.99,7.19,2.78,13.54,7.72,19.04,14.81,5.5,7.09,9.61,15.76,12.36,26.02,2.86,10.66,3.7,20.5,2.53,29.54Z"/>
</svg>