<?xml version="1.0" encoding="UTF-8"?>
<svg id="Logo" xmlns="http://www.w3.org/2000/svg" viewBox="0 0 330.05 410.07">
  <defs>
    <style>
      .cls-1 {
        fill: #fff;
      }
    </style>
  </defs>
  <polygon class="cls-1" points="52.57 352.44 259.58 380.59 277.63 348.84 56.37 344.82 52.57 352.44"/>
  <path class="cls-1" d="M263.74,150.9c12.85,47.95,5.36,79.31,4.65,82.84l10.32,24.42c1.61-2.51,23.61-34.07,23.61-80.69,0-25.52-6.25-49.22-18.76-71.08-31.21-54.54-81.04-66.91-98.45-69.57l6.52,15.42c26.48,12.21,56.91,41.95,72.1,98.67Z"/>
  <path class="cls-1" d="M165.1,323.41c24.02,0,46.57-6.58,67.65-19.72,1.12-.69,2.22-1.4,3.31-2.13l-2.87-6.83c-22.47,17.58-48.32,19.26-56.98,19.26-82.8,0-109.1-106.05-110.19-110.12-6.81-25.39-8.7-49.07-5.71-71.07,6.07-44.65,31.01-74.7,68.86-85.16l-2.75-6.51c-10.11,3.15-19.89,7.59-29.37,13.32-33.73,20.38-69.18,62.61-69.18,123.02,0,81.77,65.08,145.95,137.22,145.95Z"/>
  <path class="cls-1" d="M54.39,303.79l6.58-16.19c-2.39-2.53-4.71-5.14-6.93-7.84l-9.84,23.65-16.47,18.42h43.23l-16.57-18.03Z"/>
  <polygon class="cls-1" points="92.14 210.91 143.08 85.57 138.97 75.74 79.43 218.75 213.19 218.75 249.16 304.18 232.69 321.82 302.47 321.82 286.01 303.79 170.01 29.48 133.55 29.48 209.89 210.91 92.14 210.91"/>
</svg>